<?xml version="1.0" encoding="UTF-8"?>
<!DOCTYPE svg PUBLIC "-//W3C//DTD SVG 1.1//EN" "http://www.w3.org/Graphics/SVG/1.1/DTD/svg11.dtd">
<!-- Creator: CorelDRAW -->
<svg xmlns="http://www.w3.org/2000/svg" xml:space="preserve" width="210mm" height="297mm" version="1.1" style="shape-rendering:geometricPrecision; text-rendering:geometricPrecision; image-rendering:optimizeQuality; fill-rule:evenodd; clip-rule:evenodd"
viewBox="0 0 21000 29700"
 xmlns:xlink="http://www.w3.org/1999/xlink"
 xmlns:xodm="http://www.corel.com/coreldraw/odm/2003">
 <defs>
  <style type="text/css">
   <![CDATA[
    .str0 {stroke:#FEFEFE;stroke-width:20;stroke-miterlimit:22.9256}
    .str2 {stroke:#2792D8;stroke-width:20;stroke-miterlimit:22.9256}
    .str1 {stroke:#A7C213;stroke-width:20;stroke-miterlimit:22.9256}
    .fil0 {fill:#FEFEFE}
    .fil2 {fill:#2792D8}
    .fil1 {fill:#A7C213}
   ]]>
  </style>
 </defs>
 <g id="Слой_x0020_1">
  <metadata id="CorelCorpID_0Corel-Layer"/>
  <path class="fil0 str0" d="M10189.19 4838.73c-2.5,0.72 -5.45,7.95 -7.86,13.88 -2.42,5.92 -4.31,10.56 -7.35,18.02 -3.04,7.45 -7.24,17.73 -14.19,34.78 -6.95,17.05 -16.66,40.87 -31.5,77.27 -14.84,36.39 -34.8,85.35 -54.49,133.66 -19.7,48.3 -39.13,95.94 -62.87,154.17 -23.74,58.23 -51.8,127.04 -156.12,382.9 -104.33,255.86 -284.92,698.77 -604.93,1377.35 -320.02,678.57 -779.45,1592.81 -1283.16,2270.48 -503.72,677.67 -1051.72,1118.75 -1382.66,1378.86 -330.95,260.11 -444.86,339.25 -586.71,467.01 -141.85,127.76 -311.65,304.14 -460.69,467.73 -149.04,163.59 -277.33,314.38 -343.71,477.73 -66.38,163.35 -70.86,339.25 -44.67,1153.78 26.18,814.53 83.02,2267.69 443.49,3534.33 360.47,1266.65 1024.55,2346.79 1566.74,3054.99 542.19,708.21 962.49,1044.48 1226.08,1222.21 263.59,177.73 370.49,196.91 515.24,217.75 144.74,20.84 327.34,43.32 529.88,60.64 202.54,17.32 425.03,29.46 601.58,26.35 176.55,-3.11 307.16,-21.48 457.83,-38.64 150.67,-17.16 321.38,-33.1 507.14,-53.54 185.76,-20.43 386.56,-45.36 976.82,-962.11 590.27,-916.75 1570.01,-2725.34 2181.59,-4098.34 611.58,-1372.99 855,-2310.41 933.1,-2931.77 78.1,-621.37 -9.14,-926.69 -100.74,-1133.87 -91.59,-207.18 -187.54,-316.22 -403.45,-394.73 -215.9,-78.51 -551.75,-126.49 -911.59,-183.19 -359.84,-56.71 -743.67,-122.13 -1211.16,-807.08 -467.48,-684.95 -1018.63,-1989.43 -1362.23,-2939.77 -343.6,-950.35 -479.67,-1546.56 -581.47,-1942.8 -101.8,-396.25 -169.33,-592.51 -206.31,-699.71 -36.98,-107.2 -43.41,-125.32 -50.6,-145.63 -7.2,-20.32 -15.17,-42.81 -22.67,-63.98 -7.5,-21.18 -14.54,-41.03 -19.01,-53.65 -4.47,-12.63 -6.39,-18.04 -8.27,-23.34 -1.88,-5.31 -3.72,-10.52 -5.46,-15.44 -1.75,-4.92 -3.39,-9.55 -4.87,-13.74 -1.49,-4.2 -2.83,-7.97 -4.52,-12.74 -1.69,-4.77 -3.74,-10.54 -6.23,-9.82z"/>
  <path class="fil1 str1" d="M10101.95 21372.13c-2.47,6.01 -13.49,5.88 -24.73,5.75 -11.24,-0.12 -22.7,-0.25 -38.58,-0.43 -15.87,-0.18 -36.16,-0.4 -64.39,-0.72 -28.22,-0.31 -64.39,-0.72 -129,-3.79 -64.61,-3.06 -157.65,-8.79 -265.91,-17.17 -108.26,-8.38 -231.73,-19.4 -338.89,-31.53 -107.15,-12.13 -198,-25.36 -274.51,-35.95 -76.51,-10.58 -138.68,-18.51 -207.7,-30.2 -69.01,-11.68 -144.85,-27.12 -216.95,-41.67 -72.1,-14.55 -140.46,-28.22 -201.54,-41.23 -61.07,-13.01 -114.86,-25.35 -179.91,-41.23 -65.04,-15.87 -141.33,-35.28 -212.99,-55.57 -71.66,-20.28 -138.68,-41.44 -213.65,-65.7 -74.96,-24.25 -157.87,-51.59 -238.13,-78.93 -80.25,-27.34 -157.87,-54.68 -230.85,-82.46 -72.98,-27.78 -141.33,-56.01 -224.24,-92.39 -82.9,-36.38 -180.35,-80.92 -235.91,-106.94 -55.57,-26.02 -69.24,-33.51 -113.11,-57.11 -43.88,-23.59 -117.97,-63.27 -190.29,-103.84 -72.32,-40.57 -142.87,-82.03 -204.16,-119.73 -61.3,-37.7 -113.34,-71.66 -172.21,-110.47 -58.87,-38.8 -124.57,-82.45 -189.39,-129.42 -64.83,-46.96 -128.77,-97.23 -202.85,-158.97 -74.09,-61.73 -158.31,-134.94 -220.49,-190.5 -62.18,-55.56 -102.31,-93.49 -137.59,-126.34 -35.28,-32.85 -65.7,-60.63 -100.09,-94.81 -34.4,-34.17 -72.77,-74.74 -124.36,-132.07 -51.59,-57.32 -116.42,-131.41 -174.4,-200.2 -57.99,-68.79 -109.15,-132.3 -158.76,-198.23 -49.61,-65.92 -97.67,-134.27 -146.4,-204.17 -48.73,-69.89 -98.12,-141.32 -141.99,-210.34 -43.88,-69.01 -82.25,-135.59 -125.02,-211.22 -42.78,-75.63 -89.96,-160.3 -132.73,-241 -42.78,-80.7 -81.15,-157.42 -113.34,-225.11 -32.19,-67.69 -58.2,-126.34 -87.52,-195.8 -29.33,-69.45 -61.97,-149.71 -88.2,-215.64 -26.24,-65.92 -46.09,-117.52 -62.18,-162.72 -16.1,-45.2 -28.44,-84 -44.98,-145.52 -16.54,-61.51 -37.26,-145.74 -52.91,-213.43 -15.66,-67.68 -26.25,-118.84 -39.92,-195.79 -13.67,-76.95 -30.42,-179.69 -42.55,-266.79 -12.13,-87.09 -19.62,-158.53 -26.67,-241 -7.06,-82.46 -13.68,-175.94 -18.31,-251.57 -4.63,-75.63 -7.29,-133.39 -8.61,-184.54 -1.33,-51.16 -1.33,-95.7 1.54,-166.47 2.87,-70.78 8.61,-167.8 13.91,-246.73 5.29,-78.93 10.14,-139.79 16.32,-195.13 6.17,-55.34 13.66,-105.17 22.26,-164.48 8.6,-59.31 18.3,-128.11 29.55,-193.59 11.24,-65.49 24.03,-127.66 37.7,-190.5 13.67,-62.84 28.22,-126.34 46.96,-198 18.74,-71.66 41.68,-151.47 61.3,-215.63 19.62,-64.17 35.94,-112.68 59.09,-177.28 23.15,-64.61 53.13,-145.3 80.48,-214.75 27.34,-69.46 52.03,-127.67 74.97,-182.35 22.93,-54.68 44.09,-105.84 66.58,-156.99 22.49,-51.15 46.3,-102.3 76.07,-162.27 29.76,-59.97 65.48,-128.77 94.59,-184.11 29.1,-55.34 51.59,-97.24 78.27,-143.54 26.68,-46.3 57.55,-97.02 95.48,-157.65 37.92,-60.63 82.89,-131.19 123.24,-192.48 40.35,-61.3 76.07,-113.33 111.35,-165.14 35.28,-51.82 70.11,-103.42 115.76,-166.7 45.64,-63.28 102.08,-138.24 158.09,-209.24 56,-71 111.56,-138.02 166.02,-204.39 54.46,-66.37 107.82,-132.07 181.25,-216.08 73.42,-84.01 166.9,-186.31 241.87,-267.45 74.96,-81.14 131.41,-141.11 181.02,-192.7 49.61,-51.6 92.38,-94.81 125.68,-127.66 33.29,-32.86 57.1,-55.35 80.91,-75.85 23.81,-20.51 47.63,-39.03 64.17,-51.82 16.53,-12.79 25.79,-19.84 39.02,-23.37 13.23,-3.53 30.43,-3.53 51.6,-1.32 21.16,2.2 46.3,6.61 73.64,11.68 27.34,5.07 56.88,10.81 84.23,17.87 27.34,7.05 52.47,15.42 78.71,24.68 26.24,9.26 53.58,19.41 78.94,29.99 25.35,10.58 48.72,21.61 72.76,31.75 24.03,10.14 48.72,19.41 75.4,30.88 26.68,11.46 55.35,25.13 81.59,36.6 26.23,11.46 50.04,20.72 74.08,29.32 24.03,8.6 48.28,16.53 72.54,24.69 24.25,8.16 48.51,16.54 73.86,24.7 25.36,8.16 51.81,16.09 72.53,21.61 20.73,5.51 35.73,8.59 59.1,14.77 23.37,6.17 55.12,15.43 88.41,23.81 33.3,8.38 68.13,15.87 95.69,21.17 27.57,5.29 47.85,8.37 66.59,9.92 18.75,1.54 35.94,1.54 57.77,1.76 21.83,0.22 48.29,0.66 70.56,0.44 22.27,-0.22 40.35,-1.1 55.12,-1.54 14.77,-0.44 26.24,-0.44 32.85,1.33 6.61,1.76 8.38,5.28 6.83,8.81 -1.54,3.53 -6.39,7.05 -15.65,10.58 -9.26,3.53 -22.93,7.06 -40.35,11.69 -17.42,4.63 -38.58,10.37 -63.5,15.22 -24.91,4.85 -53.58,8.81 -79.6,11.9 -26.01,3.09 -49.38,5.29 -75.84,6.4 -26.46,1.1 -56,1.1 -85.11,0.44 -29.1,-0.66 -57.77,-1.99 -89.3,-5.29 -31.53,-3.31 -65.92,-8.61 -104.07,-13.46 -38.14,-4.85 -80.04,-9.26 -123.91,-16.09 -43.88,-6.84 -89.74,-16.1 -136.48,-27.34 -46.75,-11.25 -94.37,-24.48 -133.17,-33.96 -38.81,-9.48 -68.8,-15.21 -94.15,-19.62 -25.36,-4.41 -46.08,-7.49 -65.92,-8.81 -19.85,-1.33 -38.82,-0.89 -58.22,1.54 -19.4,2.42 -39.25,6.83 -58.43,11.9 -19.18,5.07 -37.7,10.81 -56.88,18.75 -19.18,7.93 -39.03,18.07 -50.93,24.91 -11.91,6.83 -15.88,10.36 -18.3,14.77 -2.43,4.41 -3.32,9.7 0.21,13.89 3.53,4.19 11.47,7.27 21.4,9.7 9.92,2.42 21.82,4.19 38.8,7.28 16.98,3.08 39.02,7.49 59.53,12.12 20.5,4.63 39.47,9.49 58.87,15.44 19.4,5.95 39.25,13.01 61.74,20.95 22.49,7.93 47.62,16.75 72.54,26.01 24.91,9.26 49.61,18.97 77.17,29.33 27.56,10.36 57.98,21.39 87.53,34.4 29.54,13 58.21,28 86.65,43.43 28.44,15.43 56.67,31.31 83.13,44.76 26.45,13.45 51.15,24.47 75.84,35.28 24.7,10.8 49.39,21.39 72.76,31.53 23.38,10.14 45.42,19.84 68.57,28.66 23.15,8.82 47.41,16.75 71.66,24.69 24.25,7.94 48.51,15.88 74.96,23.82 26.46,7.94 55.13,15.87 80.48,22.27 25.36,6.39 47.41,11.24 67.47,14.99 20.07,3.75 38.15,6.39 61.52,9.48 23.37,3.09 52.04,6.61 76.29,7.94 24.25,1.32 44.1,0.44 63.5,-0.22 19.4,-0.66 38.37,-1.11 52.04,-0.67 13.67,0.44 22.04,1.77 27.55,3.54 5.52,1.76 8.16,3.96 7.72,6.17 -0.44,2.2 -3.96,4.41 -10.8,6.84 -6.83,2.42 -16.98,5.06 -34.18,9.25 -17.19,4.19 -41.45,9.93 -66.81,14.34 -25.35,4.41 -51.81,7.49 -81.58,10.8 -29.76,3.31 -62.84,6.83 -95.69,9.48 -32.85,2.64 -65.48,4.41 -99.22,6.17 -33.73,1.76 -68.56,3.53 -102.3,4.19 -33.73,0.66 -66.37,0.22 -98.34,-0.88 -31.97,-1.1 -63.28,-2.87 -86.87,-3.97 -23.59,-1.1 -39.47,-1.54 -53.14,-1.1 -13.67,0.44 -25.13,1.76 -35.71,4.63 -10.59,2.86 -20.29,7.27 -27.12,11.46 -6.84,4.19 -10.81,8.16 -14.12,13.01 -3.31,4.85 -5.95,10.59 -7.05,16.54 -1.11,5.95 -0.66,12.13 0.88,18.75 1.54,6.61 4.19,13.66 8.82,19.4 4.63,5.73 11.24,10.14 17.64,15.87 6.39,5.73 12.57,12.79 21.17,20.07 8.59,7.27 19.62,14.76 31.96,23.8 12.35,9.04 26.02,19.63 39.47,29.11 13.45,9.48 26.68,17.86 39.69,27.56 13.01,9.7 25.8,20.73 38.81,31.53 13.01,10.8 26.23,21.39 36.15,30.87 9.93,9.48 16.54,17.86 23.6,26.24 7.06,8.38 14.55,16.75 22.27,26.01 7.72,9.26 15.65,19.41 25.79,32.86 10.15,13.45 22.49,30.2 33.95,45.64 11.47,15.43 22.06,29.54 33.96,43.65 11.91,14.11 25.14,28.23 38.15,41.46 13.01,13.23 25.79,25.57 41.44,41.01 15.66,15.43 34.19,33.95 49.84,48.73 15.66,14.77 28.44,25.79 40.79,37.48 12.35,11.69 24.25,24.03 37.7,35.94 13.45,11.9 28.45,23.37 43,34.39 14.55,11.02 28.66,21.61 42.99,33.3 14.33,11.68 28.89,24.47 44.1,37.26 15.22,12.79 31.09,25.57 42.55,33.29 11.47,7.72 18.53,10.36 27.79,12.79 9.26,2.43 20.72,4.63 32.41,6.18 11.69,1.54 23.59,2.42 37.04,2.42 13.45,0 28.45,-0.88 43.44,-1.76 14.99,-0.88 29.99,-1.77 40.79,-1.77 10.8,0 17.42,0.89 24.25,4.64 6.84,3.74 13.89,10.36 19.18,19.62 5.3,9.26 8.82,21.16 11.46,36.38 2.65,15.21 4.42,33.73 5.08,52.47 0.66,18.74 0.22,37.71 -0.44,54.47 -0.66,16.75 -1.55,31.3 -2.87,46.96 -1.32,15.65 -3.09,32.4 -5.74,50.04 -2.64,17.64 -6.16,36.17 -10.35,56.24 -4.19,20.06 -9.04,41.66 -14.11,64.59 -5.07,22.93 -10.37,47.19 -15.66,69.68 -5.29,22.49 -10.58,43.21 -14.33,64.38 -3.75,21.17 -5.95,42.77 -8.16,63.06 -2.2,20.28 -4.41,39.25 -5.95,63.06 -1.54,23.81 -2.43,52.48 -2.65,76.51 -0.22,24.03 0.22,43.44 0.44,64.61 0.22,21.16 0.22,44.09 -0.66,73.2 -0.88,29.1 -2.65,64.37 -3.53,97.01 -0.88,32.63 -0.88,62.61 -0.88,89.07 0,26.46 0,49.39 0.44,78.94 0.44,29.54 1.33,65.7 2.43,98.34 1.1,32.63 2.43,61.73 3.97,91.72 1.54,29.99 3.31,60.85 5.51,88.86 2.21,28 4.85,53.13 7.49,75.62 2.65,22.49 5.3,42.34 8.16,57.11 2.87,14.77 5.95,24.47 10.36,39.02 4.41,14.55 10.15,33.96 17.42,58.88 7.28,24.91 16.1,55.33 25.14,84.66 9.04,29.32 18.3,57.55 28,86.88 9.7,29.32 19.85,59.74 28.45,89.07 8.6,29.32 15.65,57.55 24.03,85.11 8.38,27.56 18.08,54.46 25.79,82.02 7.72,27.56 13.46,55.79 20.07,89.3 6.62,33.51 14.11,72.32 18.96,102.31 4.85,29.98 7.06,51.14 9.48,76.5 2.43,25.36 5.07,54.9 6.61,84.01 1.55,29.1 1.99,57.77 1.55,97.9 -0.44,40.12 -1.77,91.72 -2.87,128.98 -1.1,37.26 -1.98,60.19 -5.07,82.68 -3.08,22.49 -8.38,44.54 -16.1,67.25 -7.71,22.71 -17.85,46.08 -29.1,67.91 -11.24,21.83 -23.59,42.11 -41.23,70.78 -17.64,28.66 -40.57,65.71 -61.08,96.58 -20.5,30.86 -38.58,55.56 -56,77.39 -17.42,21.82 -34.17,40.78 -49.83,58.64 -15.65,17.86 -30.21,34.62 -44.1,51.38 -13.89,16.76 -27.11,33.51 -38.8,49.17 -11.68,15.65 -21.83,30.2 -28.23,43.43 -6.39,13.23 -9.03,25.13 -8.59,34.4 0.44,9.26 3.96,15.87 9.03,20.28 5.08,4.41 11.69,6.62 19.41,6.84 7.72,0.22 16.54,-1.55 29.77,-5.96 13.23,-4.41 30.86,-11.46 48.28,-19.62 17.42,-8.16 34.62,-17.42 52.26,-27.56 17.64,-10.14 35.72,-21.17 52.92,-31.31 17.2,-10.14 33.51,-19.4 50.71,-28.66 17.2,-9.26 35.28,-18.52 52.03,-24.69 16.76,-6.18 32.2,-9.27 46.31,-11.03 14.11,-1.77 26.89,-2.21 40.12,-2.65 13.23,-0.44 26.9,-0.88 37.48,-1.1 10.59,-0.22 18.08,-0.22 23.15,1.33 5.08,1.54 7.72,4.62 6.4,9.47 -1.32,4.85 -6.61,11.47 -14.77,16.32 -8.16,4.85 -19.18,7.93 -31.31,11.46 -12.13,3.53 -25.35,7.5 -36.82,11.47 -11.46,3.97 -21.17,7.94 -30.87,13.68 -9.7,5.73 -19.4,13.22 -28.88,20.72 -9.48,7.5 -18.74,14.99 -28,22.93 -9.26,7.94 -18.53,16.31 -28.89,25.79 -10.36,9.48 -21.83,20.07 -33.3,31.54 -11.46,11.46 -22.92,23.8 -38.14,38.58 -15.21,14.77 -34.17,31.97 -52.91,49.39 -18.74,17.42 -37.27,35.05 -52.71,50.7 -15.43,15.66 -27.77,29.33 -41.88,45.2 -14.11,15.88 -29.99,33.96 -41.24,47.19 -11.24,13.23 -17.85,21.61 -24.03,28.88 -6.17,7.28 -11.91,13.46 -15.22,20.07 -3.3,6.62 -4.18,13.67 -3.08,21.83 1.11,8.16 4.19,17.42 10.8,23.81 6.62,6.4 16.77,9.92 28.23,11.68 11.47,1.77 24.25,1.77 36.6,0.22 12.35,-1.54 24.25,-4.62 38.58,-9.69 14.34,-5.07 31.09,-12.13 48.73,-21.17 17.64,-9.04 36.16,-20.06 57.1,-31.97 20.95,-11.91 44.33,-24.69 63.51,-35.06 19.18,-10.36 34.18,-18.29 48.51,-25.57 14.33,-7.28 28,-13.89 40.56,-19.41 12.57,-5.51 24.04,-9.92 34.18,-13.23 10.14,-3.3 18.96,-5.51 26.23,-5.95 7.28,-0.44 13.02,0.89 14.78,5.07 1.77,4.19 -0.44,11.25 -5.95,18.96 -5.51,7.72 -14.33,16.1 -24.92,28.67 -10.58,12.57 -22.92,29.32 -34.83,43.87 -11.91,14.56 -23.37,26.9 -36.6,40.57 -13.23,13.67 -28.23,28.67 -44.55,44.98 -16.31,16.32 -33.95,33.96 -51.15,49.83 -17.2,15.88 -33.95,29.99 -48.95,43.88 -14.99,13.89 -28.21,27.56 -45.41,43.43 -17.2,15.88 -38.37,33.96 -60.2,50.49 -21.83,16.54 -44.31,31.54 -66.36,44.77 -22.05,13.23 -43.66,24.69 -65.71,36.38 -22.05,11.69 -44.54,23.59 -85.77,43.87 -41.23,20.29 -101.2,48.96 -141.55,66.81 -40.35,17.86 -61.07,24.92 -83.12,30.87 -22.05,5.95 -45.43,10.81 -69.24,16.32 -23.81,5.51 -48.07,11.69 -70.78,16.09 -22.71,4.41 -43.87,7.06 -69.01,10.36 -25.13,3.31 -54.24,7.28 -81.8,9.48 -27.56,2.21 -53.57,2.65 -79.59,3.53 -26.02,0.88 -52.04,2.21 -82.91,3.31 -30.87,1.1 -66.58,1.99 -100.31,2.65 -33.74,0.66 -65.49,1.1 -93.27,1.76 -27.78,0.66 -51.6,1.55 -92.17,3.75 -40.57,2.21 -97.89,5.73 -136.47,7.71 -38.59,1.99 -58.44,2.43 -77.18,3.31 -18.74,0.88 -36.38,2.21 -52.47,3.31 -16.1,1.1 -30.66,1.99 -43.66,1.99 -13.01,0 -24.48,-0.89 -32.85,-0.89 -8.38,0 -13.68,0.89 -17.42,2.43 -3.75,1.54 -5.96,3.75 -6.4,7.49 -0.44,3.75 0.89,9.05 4.2,15.44 3.3,6.4 8.59,13.89 15.65,23.37 7.05,9.48 15.87,20.95 26.9,33.73 11.02,12.79 24.25,26.91 44.76,46.09 20.5,19.18 48.28,43.44 75.84,67.69 27.56,24.25 54.9,48.51 83.57,71 28.66,22.49 58.64,43.21 84.88,61.51 26.24,18.3 48.73,34.18 72.77,50.05 24.03,15.88 49.6,31.75 79.59,46.3 29.99,14.56 64.38,27.78 100.99,39.02 36.6,11.25 75.4,20.52 110.9,28.01 35.5,7.5 67.69,13.23 97.45,17.2 29.77,3.97 57.11,6.17 83.12,7.49 26.02,1.33 50.72,1.77 75.85,1.11 25.14,-0.66 50.71,-2.43 76.73,-5.74 26.02,-3.3 52.48,-8.15 81.14,-13.89 28.67,-5.73 59.53,-12.34 86.43,-19.4 26.9,-7.06 49.84,-14.55 74.09,-22.27 24.26,-7.72 49.83,-15.65 75.18,-25.13 25.36,-9.48 50.5,-20.51 73.65,-30.87 23.15,-10.36 44.31,-20.07 63.49,-26.47 19.19,-6.39 36.39,-9.47 52.92,-11.9 16.54,-2.42 32.42,-4.19 48.29,-5.73 15.88,-1.54 31.75,-2.87 47.18,-3.31 15.44,-0.44 30.44,0.01 47.41,1.33 16.98,1.32 35.94,3.53 59.09,6.17 23.15,2.65 50.49,5.73 82.9,9.48 32.41,3.75 69.9,8.16 118.18,14.99 48.29,6.84 107.38,16.1 161.18,24.7 53.8,8.6 102.31,16.53 151.04,26.23 48.73,9.71 97.67,21.17 135.81,31.97 38.15,10.81 65.49,20.96 91.06,30.88 25.58,9.92 49.4,19.62 69.68,28 20.29,8.38 37.04,15.43 54.24,22.93 17.2,7.5 34.84,15.43 50.71,24.03 15.88,8.6 29.99,17.86 45.64,27.34 15.66,9.48 32.86,19.19 46.97,28.89 14.11,9.7 25.14,19.4 33.51,28.88 8.38,9.48 14.12,18.74 17.86,28.66 3.75,9.92 5.52,20.51 4.85,31.53 -0.66,11.03 -3.74,22.49 -9.48,32.41 -5.73,9.93 -14.11,18.3 -31.31,37.26 -17.2,18.97 -43.21,48.51 -81.14,88.42 -37.92,39.91 -87.75,90.18 -142.43,147.28 -54.68,57.11 -114.22,121.06 -156.55,166.26 -42.33,45.2 -67.47,71.65 -91.94,96.78 -24.47,25.14 -48.29,48.96 -67.03,68.36 -18.74,19.4 -32.41,34.4 -47.85,51.15 -15.43,16.76 -32.62,35.28 -48.5,54.46 -15.87,19.18 -30.43,39.03 -41.01,54.9 -10.58,15.88 -17.2,27.78 -20.73,40.79 -3.52,13.01 -3.97,27.13 -3.97,41.46 0,14.33 0.45,28.88 3.09,43.21 2.65,14.33 7.5,28.45 13.23,40.57 5.73,12.13 12.35,22.27 21.39,31.75 9.04,9.48 20.5,18.3 32.19,27.12 11.69,8.82 23.59,17.64 41.67,28.22 18.08,10.59 42.34,22.93 73.64,40.79 31.31,17.86 69.68,41.24 122.15,71.44 52.48,30.21 119.06,67.25 212.55,122.37 93.49,55.12 213.87,128.33 277.59,166.91 63.73,38.59 70.78,42.56 74.75,46.97 3.97,4.41 4.85,9.26 3.52,16.97 -1.32,7.72 -4.84,18.31 -6.61,28.89 -1.76,10.58 -1.76,21.17 -1.1,32.63 0.66,11.47 1.99,23.81 4.19,36.16 2.21,12.35 5.29,24.69 12.57,41.67 7.28,16.98 18.74,38.59 125.01,248.71 106.28,210.13 307.37,608.77 434.31,860.89 126.94,252.13 179.75,357.74 230.16,458.56 50.41,100.83 98.42,196.86 130.03,260.09 31.62,63.24 46.84,93.66 58.33,116.64 11.49,22.98 19.25,38.51 25.67,51.34 6.42,12.84 11.5,22.99 17.06,34.12 5.57,11.14 11.64,23.27 9.16,29.27z"/>
  <path class="fil1 str1" d="M7018.26 11072.86c-26.2,-9.65 -59.26,-22.09 -91.27,-36.43 -32.01,-14.34 -62.99,-30.58 -91.08,-44.16 -28.1,-13.57 -53.3,-24.48 -78.15,-34.47 -24.85,-9.99 -49.33,-19.07 -73.89,-27.04 -24.57,-7.98 -49.23,-14.87 -74.21,-20.45 -24.99,-5.57 -50.31,-9.86 -75.04,-12.98 -24.75,-3.12 -48.93,-5.1 -75.38,-6.15 -26.46,-1.06 -55.22,-1.19 -71.98,-1.67 -16.78,-0.49 -21.58,-1.32 -24.98,-2.93 -3.41,-1.6 -5.43,-3.98 -6.1,-6.69 -0.66,-2.71 0.03,-5.74 10.83,-18.81 10.8,-13.05 31.7,-36.12 50.95,-55.12 19.25,-19.01 36.84,-33.94 51.48,-45.13 14.63,-11.2 26.29,-18.65 38.81,-25.59 12.51,-6.95 25.86,-13.37 37.58,-18.62 11.7,-5.23 21.77,-9.27 32.35,-11.51 10.58,-2.23 21.68,-2.66 31.6,-2.29 9.92,0.37 18.68,1.53 31.65,5.23 12.97,3.72 30.16,9.99 44.71,16.05 14.55,6.05 26.45,11.89 37.44,18.31 10.97,6.44 21.02,13.45 33.64,21.56 12.6,8.11 27.78,17.31 39.7,25.8 11.91,8.49 20.57,16.28 30.29,24.59 9.71,8.32 20.5,17.17 33.28,28.6 12.78,11.45 27.56,25.48 41.23,36.99 13.66,11.52 26.2,20.51 37.77,30.53 11.56,10.01 22.17,21.05 33.6,32.82 11.42,11.78 23.67,24.27 34.52,35.11 10.83,10.85 20.27,20.03 30.81,29.08 10.54,9.04 22.2,17.95 33.02,26.36 10.81,8.41 20.79,16.3 30.67,22.63 9.88,6.35 19.67,11.12 31.6,16.74 11.93,5.62 26.01,12.08 39.07,17.35 13.06,5.27 25.11,9.35 34.11,12.96 8.99,3.62 14.94,6.75 20.49,9.19 5.55,2.45 10.71,4.19 12.37,5.65 1.65,1.46 -0.23,2.64 -3.59,3.25 -3.37,0.61 -8.24,0.67 -16.12,-0.2 -7.9,-0.86 -18.82,-2.65 -32.76,-5.33 -13.94,-2.68 -30.9,-6.29 -48.76,-9.74 -17.86,-3.45 -36.61,-6.74 -55.66,-11.84 -19.06,-5.1 -38.4,-11.98 -64.6,-21.65z"/>
  <path class="fil1 str1" d="M8745.71 10887.5c-22.05,-10.59 -48.51,-23.82 -88.2,-43.44 -39.69,-19.63 -92.6,-45.64 -140.67,-70.33 -48.07,-24.7 -91.28,-48.08 -134.05,-73.87 -42.78,-25.8 -85.12,-54.02 -129.21,-84.44 -44.1,-30.43 -89.96,-63.07 -131.19,-95.04 -41.23,-31.97 -77.84,-63.28 -113.56,-96.35 -35.72,-33.08 -70.55,-67.91 -100.54,-100.54 -29.99,-32.64 -55.12,-63.06 -72.76,-87.31 -17.64,-24.26 -27.78,-42.34 -36.16,-61.52 -8.38,-19.19 -14.99,-39.47 -20.5,-58.43 -5.52,-18.97 -9.93,-36.61 -14.12,-56.01 -4.19,-19.41 -8.15,-40.57 -11.24,-63.72 -3.09,-23.15 -5.29,-48.29 -6.39,-71.22 -1.11,-22.93 -1.11,-43.65 -0.45,-65.48 0.66,-21.83 1.99,-44.77 5.3,-68.58 3.3,-23.81 8.6,-48.51 14.77,-74.52 6.17,-26.02 13.23,-53.36 19.84,-76.07 6.61,-22.71 12.79,-40.79 20.95,-62.62 8.15,-21.83 18.3,-47.4 30.87,-77.39 12.56,-29.99 27.56,-64.38 42.55,-95.25 14.99,-30.87 29.99,-58.21 45.87,-85.11 15.87,-26.9 32.62,-53.36 51.37,-80.92 18.74,-27.56 39.46,-56.23 57.1,-80.48 17.64,-24.25 32.2,-44.1 45.21,-60.63 13,-16.54 24.47,-29.77 34.17,-40.13 9.7,-10.37 17.64,-17.86 23.16,-22.49 5.51,-4.63 8.59,-6.4 11.9,-6.62 3.31,-0.22 6.83,1.11 9.7,3.09 2.87,1.98 5.07,4.63 6.4,10.14 1.32,5.51 1.76,13.89 1.98,32.41 0.22,18.52 0.22,47.19 0.88,74.97 0.66,27.78 1.99,54.68 3.98,80.26 1.98,25.57 4.62,49.83 8.15,76.07 3.53,26.23 7.93,54.46 13,84.23 5.07,29.76 10.81,61.07 18.75,97.89 7.93,36.82 18.08,79.16 31.09,132.74 13.01,53.57 28.88,118.4 40.79,166.69 11.91,48.28 19.84,80.03 31.97,124.79 12.13,44.76 28.44,102.53 44.98,153.91 16.54,51.37 33.29,96.35 54.46,146.18 21.17,49.83 46.74,104.51 67.25,147.95 20.5,43.43 35.94,75.63 52.48,104.52 16.53,28.88 34.17,54.45 49.16,76.72 15,22.27 27.34,41.23 38.58,58.21 11.25,16.97 21.4,31.97 30.88,45.42 9.48,13.45 18.3,25.35 30.42,40.35 12.13,14.99 27.57,33.07 41.46,49.83 13.89,16.75 26.23,32.19 39.9,46.74 13.67,14.55 28.67,28.23 41.45,39.7 12.79,11.46 23.38,20.72 32.42,28.44 9.04,7.71 16.53,13.89 23.81,21.17 7.28,7.27 14.33,15.64 21.61,24.24 7.28,8.6 14.77,17.42 21.16,24.7 6.4,7.27 11.7,13.01 15,17.86 3.31,4.85 4.63,8.82 2.64,11.25 -1.98,2.42 -7.27,3.3 -14.99,1.76 -7.71,-1.55 -17.86,-5.51 -29.77,-9.7 -11.9,-4.19 -25.57,-8.6 -38.58,-13.23 -13.01,-4.63 -25.35,-9.49 -40.35,-15.88 -14.99,-6.4 -32.63,-14.33 -54.68,-24.91z"/>
  <path class="fil1 str1" d="M10609.51 15092.59c-6.95,-13.4 -14.89,-31.67 -22.42,-48.62 -7.54,-16.93 -14.66,-32.55 -21.28,-50.57 -6.62,-18.02 -12.75,-38.46 -19.09,-59.35 -6.33,-20.88 -12.87,-42.2 -19.19,-63.97 -6.31,-21.77 -12.4,-43.97 -17.93,-70.57 -5.53,-26.6 -10.53,-57.59 -16.16,-89.71 -5.62,-32.11 -11.87,-65.35 -17.38,-102.53 -5.5,-37.19 -10.25,-78.32 -13.87,-111.5 -3.61,-33.16 -6.09,-58.36 -9.28,-99.69 -3.2,-41.32 -7.11,-98.75 -8.71,-142.46 -1.59,-43.71 -0.87,-73.68 -0.21,-101.24 0.66,-27.56 1.27,-52.68 4.5,-86.57 3.25,-33.88 9.12,-76.53 14.23,-114.79 5.12,-38.25 9.45,-72.11 14.33,-109.71 4.87,-37.59 10.27,-78.93 16.32,-119.36 6.04,-40.44 12.73,-79.97 21.63,-129.38 8.91,-49.41 20.05,-108.7 29.1,-155.02 9.05,-46.31 16.04,-79.67 22.14,-113.5 6.11,-33.81 11.34,-68.08 16.66,-105.68 5.31,-37.58 10.69,-78.47 15,-110.79 4.31,-32.31 7.52,-56.06 11.3,-84.64 3.78,-28.58 8.11,-62 10.3,-88.86 2.19,-26.85 2.23,-47.14 2.53,-68.53 0.29,-21.39 0.83,-43.86 0.04,-66.16 -0.79,-22.29 -2.9,-44.4 -6.02,-70.72 -3.12,-26.32 -7.23,-56.85 -12.04,-86.31 -4.8,-29.44 -10.3,-57.81 -15.82,-85.07 -5.51,-27.26 -11.07,-53.41 -17.59,-75.84 -6.51,-22.44 -13.99,-41.15 -24,-65.65 -9.99,-24.5 -22.5,-54.8 -36.79,-84.25 -14.29,-29.45 -30.36,-58.07 -47.71,-88.49 -17.36,-30.41 -36,-62.61 -53.61,-91.28 -17.62,-28.65 -34.21,-53.74 -52.06,-81.75 -17.86,-28 -36.97,-58.89 -56.12,-88.02 -19.15,-29.13 -38.34,-56.5 -62.06,-88.39 -23.71,-31.89 -51.95,-68.29 -81.07,-105.16 -29.1,-36.87 -59.07,-74.21 -85.84,-107.71 -26.76,-33.51 -50.31,-63.19 -73.44,-91.97 -23.13,-28.79 -45.83,-56.68 -72.01,-87.31 -26.17,-30.62 -55.79,-63.98 -82.42,-93.96 -26.63,-29.97 -50.26,-56.55 -74.55,-82.94 -24.28,-26.39 -49.23,-52.57 -74.62,-78.99 -25.4,-26.42 -51.22,-53.06 -78.15,-79.73 -26.93,-26.68 -54.96,-53.37 -81.46,-79.81 -26.49,-26.45 -51.44,-52.62 -74.23,-77.44 -22.78,-24.8 -43.38,-48.24 -65.91,-74.15 -22.54,-25.9 -47,-54.28 -66.29,-77.68 -19.28,-23.4 -33.4,-41.82 -50.91,-65.62 -17.52,-23.8 -38.42,-52.98 -61.65,-86.84 -23.23,-33.86 -48.77,-72.41 -75.3,-115.39 -26.54,-42.98 -54.08,-90.41 -80.52,-137.35 -26.43,-46.95 -51.78,-93.44 -75.76,-142.09 -23.97,-48.66 -46.57,-99.49 -67.5,-146.09 -20.94,-46.6 -40.21,-88.97 -56.28,-126.85 -16.07,-37.88 -28.94,-71.28 -40.72,-104.42 -11.77,-33.14 -22.45,-66.04 -34.06,-106.01 -11.61,-39.98 -24.16,-87.04 -34.99,-132.08 -10.82,-45.03 -19.93,-88.03 -28.31,-142.93 -8.39,-54.91 -16.04,-121.69 -21.37,-184.67 -5.32,-62.99 -8.31,-122.17 -9.99,-180.88 -1.67,-58.7 -2.04,-116.94 -2.23,-172.96 -0.2,-56.03 -0.23,-109.84 1.75,-173.97 1.98,-64.14 5.98,-138.59 10.47,-197.36 4.51,-58.78 9.52,-101.89 15.83,-144.53 6.32,-42.63 13.95,-84.79 23.1,-126.26 9.16,-41.46 19.85,-82.23 31.37,-120.99 11.51,-38.76 23.87,-75.52 40.24,-123.42 16.36,-47.91 36.76,-106.97 55.16,-157.26 18.42,-50.28 34.86,-91.79 52.94,-137.88 18.09,-46.1 37.84,-96.8 57.74,-144.84 19.9,-48.04 39.97,-93.45 59.82,-139.5 19.85,-46.06 39.5,-92.79 64.43,-148.43 24.94,-55.63 55.17,-120.19 82.64,-180.84 27.49,-60.66 52.24,-117.4 69.04,-156.04 16.82,-38.64 25.68,-59.15 36.9,-85.79 11.24,-26.63 24.82,-59.4 39.03,-91.03 14.22,-31.64 29.07,-62.15 39.09,-84.85 10.03,-22.7 15.24,-37.57 20.24,-52.67 4.99,-15.1 9.77,-30.42 13.15,-42.78 3.39,-12.38 5.38,-21.78 7.69,-26.45 2.33,-4.67 4.97,-4.61 6.67,-2.05 1.71,2.56 2.47,7.62 2.96,15.01 0.48,7.38 0.69,17.1 -0.16,34.06 -0.85,16.96 -2.76,41.18 -7.11,75.04 -4.33,33.86 -11.12,77.36 -18.3,119.32 -7.18,41.95 -14.77,82.35 -22.39,124.3 -7.62,41.94 -15.29,85.41 -23.16,137.5 -7.87,52.08 -15.94,112.76 -23.61,165.51 -7.66,52.74 -14.92,97.56 -22.07,156.5 -7.14,58.93 -14.19,131.99 -22.69,209.86 -8.48,77.87 -18.41,160.55 -28.14,271.48 -9.72,110.92 -19.24,250.08 -24.85,363.98 -5.6,113.89 -7.29,202.5 -4.78,300.05 2.5,97.54 9.22,204.01 14.49,278.02 5.28,74.01 9.13,115.57 13.65,157.14 4.51,41.57 9.69,83.16 14.64,124.96 4.95,41.8 9.68,83.83 16.28,129.86 6.62,46.03 15.12,96.08 23.28,141.93 8.16,45.85 15.98,87.5 22.89,120.76 6.93,33.24 12.95,58.08 31.28,121.38 18.32,63.3 48.96,165.06 74.39,245.07 25.42,80.01 45.64,138.27 64.2,191.87 18.56,53.6 35.47,102.52 54.92,155.7 19.46,53.19 41.45,110.61 67.27,174.53 25.81,63.92 55.43,134.33 81.82,192.75 26.38,58.41 49.53,104.85 70.73,149.48 21.2,44.61 40.47,87.42 59.98,128.69 19.52,41.28 39.29,81 60.37,121.65 21.08,40.65 43.47,82.21 70.75,130.72 27.28,48.52 59.48,103.99 89.41,152.12 29.94,48.14 57.64,88.95 83.63,127.29 25.98,38.34 50.26,74.21 78.63,113.93 28.39,39.72 60.87,83.29 85.86,116.97 24.99,33.69 42.51,57.49 61.07,83.51 18.56,26.03 38.17,54.29 56.69,82.3 18.51,28.02 35.93,55.79 54.62,85.57 18.7,29.79 38.66,61.58 55.2,89.32 16.53,27.75 29.64,51.45 44.85,79.17 15.21,27.71 32.54,59.44 49.2,91.16 16.66,31.72 32.66,63.42 46.54,91.1 13.9,27.68 25.68,51.35 36.95,78.09 11.27,26.74 22.02,56.54 31.09,82.57 9.09,26.03 16.49,48.25 23.62,72.9 7.13,24.66 13.97,51.73 20.76,81.22 6.79,29.5 13.52,61.42 18.87,95.73 5.35,34.32 9.32,71.03 12.5,108.59 3.19,37.58 5.6,76.01 6.33,114.62 0.73,38.62 -0.2,77.42 -3.39,131.82 -3.19,54.39 -8.64,124.39 -14.43,186.01 -5.79,61.62 -11.92,114.84 -17.84,159.47 -5.93,44.63 -11.64,80.66 -18.92,117.1 -7.27,36.43 -16.1,73.28 -28.95,130.75 -12.85,57.48 -29.73,135.6 -43.58,197.89 -13.84,62.31 -24.66,108.81 -34.29,151.58 -9.63,42.78 -18.06,81.83 -24.64,116.52 -6.57,34.69 -11.27,65.01 -17.27,103.68 -6,38.67 -13.31,85.7 -18.6,122.19 -5.28,36.48 -8.55,62.43 -11.23,91.69 -2.69,29.28 -4.8,61.86 -6.41,92.03 -1.6,30.18 -2.72,57.96 -3.99,83.06 -1.26,25.12 -2.68,47.58 -2.97,68.96 -0.3,21.39 0.54,41.71 2.24,62.69 1.71,21 4.27,42.67 7.51,63.7 3.25,21.04 7.17,41.42 12.16,63.15 4.99,21.74 11.05,44.82 17.38,65.7 6.34,20.89 12.95,39.57 18.71,56.47 5.78,16.9 10.71,32.02 15.85,47.36 5.14,15.35 10.51,30.91 15.04,44.25 4.53,13.35 8.23,24.47 10.66,33.57 2.43,9.1 3.59,16.18 4.54,22.38 0.95,6.2 1.7,11.51 1.16,15.85 -0.54,4.34 -2.4,7.69 -4.87,9.33 -2.46,1.65 -5.54,1.58 -8.55,-1.52 -3.02,-3.1 -5.95,-9.23 -10.15,-18.09 -4.2,-8.86 -9.66,-20.46 -14.07,-29.83 -4.4,-9.37 -7.75,-16.5 -12.42,-24.33 -4.66,-7.84 -10.64,-16.36 -17.6,-29.77z"/>
  <path class="fil2 str2" d="M9899.9 20637.8c-157.87,-323.28 -378.35,-781.9 -499.18,-1033.7 -120.83,-251.79 -141.99,-296.77 -155.02,-327.64 -13.03,-30.87 -17.93,-47.62 -17.04,-60.41 0.88,-12.79 7.53,-21.61 18.8,-24.7 11.27,-3.08 27.14,-0.44 47.87,8.38 20.72,8.82 46.3,23.82 183,105.84 136.7,82.02 384.53,231.07 522.12,315.73 137.58,84.67 164.92,104.96 182.56,120.83 17.64,15.88 25.57,27.34 31.75,38.36 6.17,11.03 10.58,21.62 12.79,44.11 2.2,22.49 2.2,56.88 4.85,99.65 2.64,42.78 7.94,93.93 14.11,128.32 6.17,34.4 13.23,52.04 20.29,67.47 7.05,15.44 14.1,28.67 19.84,33.96 5.73,5.29 10.14,2.65 13.67,-2.65 3.53,-5.29 6.17,-13.22 7.5,-31.3 1.32,-18.08 1.32,-46.31 2.64,-72.33 1.32,-26.01 3.97,-49.83 7.5,-71.44 3.52,-21.6 7.93,-41 12.34,-55.55 4.41,-14.55 8.82,-24.26 13.23,-28.67 4.41,-4.41 8.82,-3.52 14.11,2.65 5.29,6.17 11.47,17.64 28.67,42.77 17.19,25.14 45.42,63.94 75.85,107.16 30.42,43.22 63.06,90.84 87.76,130.09 24.69,39.25 41.44,70.11 60.85,101.86 19.4,31.75 41.44,64.39 66.14,102.75 24.69,38.37 52.04,82.46 78.06,118.18 26.01,35.72 50.71,63.06 71.44,88.19 20.72,25.14 37.47,48.07 54.67,65.27 17.2,17.2 34.84,28.66 47.63,36.6 12.79,7.94 20.72,12.35 25.13,12.79 4.41,0.44 5.3,-3.08 5.3,-11.02 0,-7.94 -0.89,-20.29 -3.09,-35.29 -2.21,-14.99 -5.73,-32.62 -22.93,-67.46 -17.2,-34.84 -48.07,-86.87 -102.75,-179.92 -54.68,-93.05 -133.18,-227.1 -194.03,-325 -60.86,-97.9 -104.07,-159.63 -136.7,-206.82 -32.64,-47.18 -54.68,-79.81 -77.61,-108.92 -22.93,-29.1 -46.75,-54.67 -78.5,-82.9 -31.75,-28.22 -71.43,-59.09 -130.52,-100.99 -59.09,-41.89 -137.59,-94.8 -220.93,-148.6 -83.35,-53.8 -171.54,-108.48 -260.18,-160.52 -88.64,-52.03 -177.71,-101.42 -240.77,-137.58 -63.06,-36.16 -100.1,-59.09 -128.32,-77.61 -28.22,-18.52 -47.63,-32.63 -59.53,-41.45 -11.91,-8.82 -16.32,-12.35 -18.96,-17.64 -2.65,-5.29 -3.54,-12.35 43.21,-93.93 46.74,-81.58 141.11,-237.68 209.46,-352.34 68.35,-114.65 110.69,-187.86 141.56,-238.57 30.86,-50.71 50.27,-78.93 70.56,-105.83 20.28,-26.9 41.44,-52.47 60.41,-75.85 18.96,-23.37 35.71,-44.53 53.79,-62.61 18.08,-18.08 37.49,-33.08 66.59,-59.1 29.1,-26.01 67.91,-63.06 104.95,-97.46 37.04,-34.39 72.32,-66.14 109.37,-96.57 37.04,-30.42 75.84,-59.53 106.71,-79.37 30.87,-19.84 53.8,-30.43 91.28,-45.42 37.48,-14.99 89.52,-34.4 145.08,-54.69 55.56,-20.28 114.65,-41.44 173.3,-59.97 58.65,-18.52 116.86,-34.39 173.75,-52.47 56.88,-18.08 112.45,-38.37 171.54,-59.98 59.09,-21.6 121.7,-44.53 188.29,-71.43 66.59,-26.9 137.14,-57.77 205.06,-88.2 67.91,-30.43 133.17,-60.41 194.91,-92.6 61.74,-32.19 119.94,-66.59 178.59,-101.87 58.65,-35.27 117.74,-71.43 175.95,-107.15 58.21,-35.72 115.53,-71 174.63,-111.57 59.09,-40.57 119.94,-86.43 166.25,-119.95 46.3,-33.51 78.05,-54.67 105.39,-70.55 27.34,-15.87 50.27,-26.46 82.46,-36.16 32.19,-9.7 73.64,-18.52 117.3,-26.9 43.65,-8.38 89.52,-16.31 146.41,-30.43 56.88,-14.11 124.79,-34.39 180.8,-52.47 56,-18.08 100.09,-33.96 155.65,-56.89 55.57,-22.93 122.6,-52.91 183.01,-82.9 60.42,-29.99 114.21,-59.97 164.92,-97.02 50.72,-37.04 98.34,-81.13 142.88,-131.41 44.54,-50.27 85.99,-106.71 123.03,-166.25 37.04,-59.53 69.68,-122.14 93.05,-176.38 23.37,-54.24 37.48,-100.11 49.38,-151.71 11.91,-51.59 21.62,-108.91 27.35,-150.37 5.73,-41.45 7.5,-67.02 8.38,-101.86 0.88,-34.84 0.88,-78.93 -0.45,-118.18 -1.32,-39.25 -3.96,-73.64 -11.46,-119.95 -7.5,-46.3 -19.84,-104.5 -36.6,-164.92 -16.76,-60.41 -37.92,-123.03 -60.85,-183.01 -22.93,-59.97 -47.63,-117.29 -74.97,-170.65 -27.34,-53.36 -57.32,-102.75 -86.87,-150.38 -29.55,-47.62 -58.65,-93.48 -87.32,-138.02 -28.66,-44.54 -56.88,-87.75 -86.43,-134.94 -29.54,-47.18 -60.41,-98.34 -84.67,-141.11 -24.25,-42.77 -41.88,-77.17 -54.23,-107.6 -12.35,-30.42 -19.4,-56.88 -25.14,-85.55 -5.73,-28.66 -10.14,-59.52 -11.02,-96.57 -0.88,-37.04 1.76,-80.25 9.26,-125.23 7.5,-44.98 19.84,-91.73 40.12,-151.26 20.29,-59.53 48.52,-131.85 71.45,-194.03 22.93,-62.18 40.56,-114.21 55.11,-149.49 14.56,-35.28 26.02,-53.8 44.54,-89.52 18.53,-35.72 44.1,-88.63 67.03,-131.84 22.93,-43.22 43.22,-76.74 69.23,-114.22 26.02,-37.48 57.77,-78.94 86.87,-112.89 29.11,-33.96 55.57,-60.41 85.55,-85.99 29.99,-25.58 63.51,-50.27 111.13,-83.78 47.63,-33.52 109.36,-75.86 178.15,-123.04 68.8,-47.18 144.64,-99.22 234.6,-161.83 89.96,-62.62 194.03,-135.83 261.94,-184.33 67.91,-48.51 99.66,-72.33 121.27,-89.96 21.61,-17.64 33.07,-29.11 40.13,-39.69 7.06,-10.58 9.7,-20.29 8.82,-26.02 -0.88,-5.73 -5.29,-7.5 -13.67,-7.05 -8.38,0.44 -20.72,3.08 -74.52,28.66 -53.8,25.58 -149.05,74.08 -285.76,141.99 -136.7,67.91 -314.85,155.23 -459.05,225.35 -144.2,70.11 -254.45,123.02 -323.24,154.77 -68.79,31.75 -96.13,42.34 -128.76,54.69 -32.63,12.34 -70.56,26.46 -104.07,38.37 -33.51,11.9 -62.62,21.6 -100.54,34.39 -37.92,12.79 -84.67,28.66 -123.48,45.42 -38.8,16.76 -69.67,34.39 -104.95,59.53 -35.28,25.13 -74.96,57.77 -108.47,91.73 -33.52,33.95 -60.86,69.22 -82.91,104.5 -22.05,35.28 -38.8,70.56 -52.47,107.16 -13.67,36.6 -24.26,74.53 -34.4,129.21 -10.14,54.68 -19.85,126.11 -25.58,182.99 -5.73,56.89 -7.5,99.23 -8.38,145.97 -0.88,46.74 -0.88,97.9 0.45,146.4 1.32,48.51 3.96,94.38 12.78,140.24 8.82,45.86 23.82,91.72 43.66,141.11 19.84,49.39 44.54,102.3 73.64,159.18 29.1,56.89 62.62,117.75 104.07,186.54 41.45,68.79 90.84,145.52 133.17,215.19 42.34,69.68 77.61,132.3 109.8,194.92 32.2,62.62 61.3,125.23 84.23,185.2 22.94,59.98 39.69,117.3 52.04,173.74 12.35,56.45 20.28,112.02 24.69,169.78 4.41,57.77 5.3,117.75 1.33,171.1 -3.97,53.36 -12.79,100.11 -23.82,142.88 -11.02,42.78 -24.25,81.58 -40.13,112.01 -15.87,30.43 -34.39,52.47 -59.53,72.75 -25.13,20.29 -56.88,38.82 -90.4,54.69 -33.51,15.88 -68.79,29.1 -111.57,36.15 -42.77,7.06 -93.04,7.95 -141.1,7.06 -48.07,-0.88 -93.93,-3.52 -145.52,-13.23 -51.6,-9.7 -108.92,-26.45 -169.77,-48.06 -60.86,-21.61 -125.25,-48.06 -195.8,-78.93 -70.56,-30.87 -147.29,-66.15 -226.66,-105.84 -79.38,-39.69 -161.4,-83.78 -242.98,-129.2 -81.58,-45.42 -162.72,-92.17 -238.12,-134.95 -75.41,-42.77 -145.09,-81.57 -203.29,-114.21 -58.21,-32.63 -104.96,-59.08 -137.15,-78.49 -32.19,-19.4 -49.83,-31.75 -62.62,-46.31 -12.79,-14.55 -20.72,-31.3 -26.01,-48.5 -5.3,-17.2 -7.94,-34.83 -7.94,-64.38 0,-29.54 2.64,-71 9.7,-143.76 7.05,-72.76 18.52,-176.83 36.16,-309.57 17.63,-132.73 41.45,-294.12 58.21,-412.75 16.75,-118.62 26.45,-194.46 33.07,-260.17 6.61,-65.7 10.14,-121.27 12.79,-173.31 2.64,-52.03 4.41,-100.53 6.17,-157.86 1.76,-57.33 3.53,-123.47 0.44,-187.42 -3.09,-63.94 -11.02,-125.67 -24.25,-196.23 -13.23,-70.56 -31.75,-149.93 -48.5,-219.6 -16.76,-69.68 -31.76,-129.65 -49.84,-190.5 -18.08,-60.86 -39.24,-122.59 -67.02,-193.15 -27.79,-70.56 -62.18,-149.93 -97.02,-223.57 -34.84,-73.65 -70.12,-141.56 -100.99,-197.12 -30.87,-55.57 -57.32,-98.78 -89.95,-148.17 -32.64,-49.39 -71.44,-104.96 -112.01,-161.84 -40.57,-56.89 -82.91,-115.09 -122.15,-165.8 -39.25,-50.72 -75.41,-93.93 -117.74,-149.49 -42.34,-55.57 -90.84,-123.48 -132.73,-188.74 -41.9,-65.27 -77.17,-127.88 -118.18,-199.32 -41.01,-71.44 -87.76,-151.7 -145.97,-257.97 -58.21,-106.28 -127.88,-238.57 -183.88,-356.31 -56.01,-117.74 -98.35,-220.93 -133.62,-313.97 -35.28,-93.05 -63.5,-175.96 -93.92,-283.99 -30.43,-108.04 -63.07,-241.22 -85.56,-340.43 -22.49,-99.22 -34.83,-164.49 -46.29,-241.66 -11.47,-77.17 -22.06,-166.24 -29.55,-272.96 -7.5,-106.72 -11.91,-231.07 -13.23,-358.95 -1.33,-127.89 0.44,-259.3 3.09,-375.71 2.64,-116.42 6.16,-217.85 14.1,-338.67 7.94,-120.83 20.28,-261.06 33.07,-389.38 12.79,-128.33 26.02,-244.74 43.66,-369.54 17.64,-124.8 39.69,-257.97 62.62,-392.03 22.93,-134.06 46.75,-268.99 76.3,-417.6 29.54,-148.61 64.81,-310.89 97,-457.29 32.19,-146.41 61.3,-276.93 97.02,-419.36 35.71,-142.44 78.05,-296.79 107.6,-396.45 29.54,-99.66 46.3,-144.64 59.53,-180.82 13.23,-36.18 22.93,-63.56 29.55,-77.25 6.61,-13.69 10.13,-13.69 14.98,0.89 4.85,14.57 11.03,43.71 29.99,108.12 18.96,64.4 50.71,164.06 93.49,292.83 42.77,128.76 96.57,286.62 154.78,442.73 58.21,156.1 120.83,310.45 192.27,476.26 71.44,165.8 151.69,343.07 230.19,503.59 78.49,160.51 155.22,304.27 239.45,454.2 84.22,149.93 175.95,306.04 272.52,461.7 96.57,155.66 198,310.89 299.87,461.26 101.86,150.37 204.16,295.9 330.28,462.15 126.12,166.24 276.05,353.22 420.69,525.2 144.64,171.98 283.99,328.96 401.73,457.73 117.74,128.76 213.87,229.3 302.94,317.94 89.08,88.63 171.11,165.36 254.45,243.42 83.35,78.05 168.01,157.42 248.27,234.6 80.26,77.17 156.1,152.13 248.26,244.74 92.17,92.6 200.65,202.85 283.55,285.75 82.91,82.9 140.23,138.47 226.22,231.07 85.99,92.6 200.65,222.25 286.64,320.59 85.99,98.33 143.31,165.36 191.82,224.01 48.51,58.65 88.19,108.92 164.04,204.61 75.85,95.69 187.86,236.81 269.88,343.09 82.02,106.27 134.06,177.7 190.5,260.17 56.45,82.46 117.3,175.94 172.86,265.46 55.57,89.52 105.84,175.07 151.7,255.33 45.86,80.26 87.31,155.22 127,229.3 39.69,74.09 77.61,147.29 112.89,224.02 35.28,76.73 67.91,156.98 105.39,251.79 37.48,94.81 79.82,204.18 123.03,328.09 43.22,123.92 87.32,262.38 123.92,399.08 36.6,136.71 65.71,271.64 94.37,418.48 28.66,146.85 56.89,305.61 75.41,466.12 18.52,160.52 27.33,322.79 31.3,451.11 3.97,128.33 3.09,222.7 0,330.3 -3.08,107.6 -8.38,228.42 -24.7,371.29 -16.31,142.88 -43.65,307.81 -76.28,473.61 -32.63,165.81 -70.56,332.5 -110.25,475.37 -39.68,142.88 -81.13,261.95 -126.55,373.51 -45.42,111.57 -94.81,215.64 -160.96,345.28 -66.14,129.65 -149.05,284.88 -250.92,447.6 -101.86,162.72 -222.68,332.93 -320.14,462.13 -97.45,129.21 -171.54,217.41 -265.03,315.3 -93.48,97.9 -206.37,205.49 -353.66,335.58 -147.28,130.09 -328.97,282.67 -473.61,395.12 -144.64,112.45 -252.23,184.77 -426.42,283.99 -174.18,99.22 -414.96,225.33 -645.15,332.93 -230.18,107.6 -449.79,196.67 -635.44,265.02 -185.65,68.36 -337.34,115.98 -492.56,158.31 -155.23,42.34 -313.98,79.38 -460.82,110.25 -146.85,30.87 -281.79,55.56 -498.31,82.46 -216.52,26.9 -514.62,56.01 -705.12,73.25 -190.5,17.25 -273.4,22.65 -318.82,25.34 -45.42,2.7 -53.36,2.7 -104.95,-91.28 -51.6,-93.98 -146.85,-281.93 -304.72,-605.22z"/>
  <path class="fil1 str1" d="M8735.36 18783.33c-88.64,-52.03 -156.11,-95.68 -200.2,-126.55 -44.1,-30.87 -64.83,-48.95 -79.16,-63.95 -14.33,-14.99 -22.27,-26.89 -26.68,-38.8 -4.41,-11.91 -5.29,-23.81 -3.96,-38.59 1.32,-14.77 4.84,-32.41 9.47,-46.52 4.63,-14.11 10.37,-24.7 19.41,-37.93 9.04,-13.23 21.38,-29.1 48.5,-60.63 27.12,-31.53 69.02,-78.72 136.71,-151.04 67.69,-72.32 161.17,-169.77 220.93,-231.07 59.75,-61.3 85.77,-86.43 112.23,-109.14 26.46,-22.71 53.35,-43 79.37,-58.65 26.02,-15.66 51.15,-26.68 73.86,-36.16 22.72,-9.49 43,-17.42 70.34,-26.46 27.35,-9.04 61.74,-19.19 93.49,-27.12 31.75,-7.94 60.86,-13.67 90.18,-18.96 29.33,-5.29 58.87,-10.15 83.34,-12.57 24.48,-2.43 43.89,-2.43 59.76,-0.88 15.88,1.54 28.22,4.62 37.92,8.15 9.7,3.53 16.76,7.5 22.49,15.22 5.73,7.72 10.14,19.18 13.92,35.28 3.78,16.09 6.92,36.82 8.49,61.52 1.58,24.69 1.58,53.35 -0.88,87.75 -2.45,34.4 -7.36,74.52 -12.24,109.36 -4.88,34.84 -9.73,64.38 -15.24,87.76 -5.51,23.37 -11.69,40.56 -80.48,168.89 -68.79,128.32 -200.21,367.78 -270.99,493.68 -70.77,125.9 -80.91,138.24 -89.51,148.16 -8.6,9.93 -15.65,17.42 -24.03,23.59 -8.38,6.18 -18.09,11.03 -29.78,13.89 -11.68,2.87 -25.35,3.76 -87.08,-26.01 -61.74,-29.76 -171.55,-90.18 -260.18,-142.22z"/>
 </g>
</svg>
